{
  "asset": {
    "version": "2.0",
    "generator": "THREE.GLTFExporter"
  },
  "scenes": [
    {
      "name": "AuxScene",
      "nodes": [
        4
      ]
    }
  ],
  "scene": 0,
  "nodes": [
    {
      "matrix": [
        2.220446049250313e-16,
        1,
        -2.220446049250313e-16,
        0,
        0,
        2.220446049250313e-16,
        1,
        0,
        1,
        -2.220446049250313e-16,
        0,
        0,
        1.0025752158827466,
        0.0008441913777469942,
        -5.551115123125783e-17,
        1
      ],
      "name": "Cylinder 4",
      "mesh": 0
    },
    {
      "matrix": [
        1,
        0,
        0,
        0,
        0,
        2.220446049250313e-16,
        1,
        0,
        0,
        -1,
        2.220446049250313e-16,
        0,
        0.0011528714863987544,
        0,
        -5.551115123125783e-17,
        1
      ],
      "name": "Cylinder 2",
      "mesh": 1
    },
    {
      "matrix": [
        -1,
        1.2246467991473537e-16,
        1.2246467991473527e-16,
        0,
        1.2246467991473532e-16,
        4.440892098500626e-16,
        1,
        0,
        1.2246467991473532e-16,
        1,
        -4.440892098500626e-16,
        0,
        -0.5,
        0.01,
        6.5526440343723585e-18,
        1
      ],
      "name": "Cylinder 3",
      "mesh": 2
    },
    {
      "matrix": [
        0.9902680687415704,
        0,
        0.13917310096006544,
        0,
        0,
        1,
        0,
        0,
        -0.13917310096006544,
        0,
        0.9902680687415704,
        0,
        -0.0011528714863987544,
        0.15,
        5.551115123125783e-17,
        1
      ],
      "name": "sc",
      "children": [
        0,
        1,
        2
      ]
    },
    {
      "name": "BezelScene",
      "children": [
        3
      ]
    }
  ],
  "bufferViews": [
    {
      "buffer": 0,
      "byteOffset": 0,
      "byteLength": 2448,
      "target": 34962,
      "byteStride": 12
    },
    {
      "buffer": 0,
      "byteOffset": 2448,
      "byteLength": 2448,
      "target": 34962,
      "byteStride": 12
    },
    {
      "buffer": 0,
      "byteOffset": 4896,
      "byteLength": 1632,
      "target": 34962,
      "byteStride": 8
    },
    {
      "buffer": 0,
      "byteOffset": 6528,
      "byteLength": 2448,
      "target": 34962,
      "byteStride": 12
    },
    {
      "buffer": 0,
      "byteOffset": 8976,
      "byteLength": 2448,
      "target": 34962,
      "byteStride": 12
    },
    {
      "buffer": 0,
      "byteOffset": 11424,
      "byteLength": 1632,
      "target": 34962,
      "byteStride": 8
    },
    {
      "buffer": 0,
      "byteOffset": 13056,
      "byteLength": 2448,
      "target": 34962,
      "byteStride": 12
    },
    {
      "buffer": 0,
      "byteOffset": 15504,
      "byteLength": 2448,
      "target": 34962,
      "byteStride": 12
    },
    {
      "buffer": 0,
      "byteOffset": 17952,
      "byteLength": 1632,
      "target": 34962,
      "byteStride": 8
    }
  ],
  "buffers": [
    {
      "byteLength": 19584,
      "uri": "data:application/octet-stream;base64,"
    }
  ],
  "accessors": [
    {
      "bufferView": 0,
      "componentType": 5126,
      "count": 204,
      "max": [
        0.5,
        0.125,
        6.123234262925839e-17
      ],
      "min": [
        -0.5,
        -0.125,
        -0.5
      ],
      "type": "VEC3"
    },
    {
      "bufferView": 1,
      "componentType": 5126,
      "count": 204,
      "max": [
        1,
        1,
        1
      ],
      "min": [
        -1,
        -1,
        -1
      ],
      "type": "VEC3"
    },
    {
      "bufferView": 2,
      "componentType": 5126,
      "count": 204,
      "max": [
        1,
        1
      ],
      "min": [
        0,
        0
      ],
      "type": "VEC2"
    },
    {
      "bufferView": 3,
      "componentType": 5126,
      "count": 204,
      "max": [
        0.5,
        0.125,
        6.123234262925839e-17
      ],
      "min": [
        -0.5,
        -0.125,
        -0.5
      ],
      "type": "VEC3"
    },
    {
      "bufferView": 4,
      "componentType": 5126,
      "count": 204,
      "max": [
        1,
        1,
        1
      ],
      "min": [
        -1,
        -1,
        -1
      ],
      "type": "VEC3"
    },
    {
      "bufferView": 5,
      "componentType": 5126,
      "count": 204,
      "max": [
        1,
        1
      ],
      "min": [
        0,
        0
      ],
      "type": "VEC2"
    },
    {
      "bufferView": 6,
      "componentType": 5126,
      "count": 204,
      "max": [
        0.5,
        0.125,
        6.123234262925839e-17
      ],
      "min": [
        -0.5,
        -0.125,
        -0.5
      ],
      "type": "VEC3"
    },
    {
      "bufferView": 7,
      "componentType": 5126,
      "count": 204,
      "max": [
        1,
        1,
        1
      ],
      "min": [
        -1,
        -1,
        -1
      ],
      "type": "VEC3"
    },
    {
      "bufferView": 8,
      "componentType": 5126,
      "count": 204,
      "max": [
        1,
        1
      ],
      "min": [
        0,
        0
      ],
      "type": "VEC2"
    }
  ],
  "materials": [
    {
      "pbrMetallicRoughness": {
        "baseColorFactor": [
          0.015996293361446288,
          0.015996293361446288,
          0.015996293361446288,
          1
        ],
        "metallicFactor": 0.21,
        "roughnessFactor": 0.33
      },
      "alphaMode": "MASK",
      "alphaCutoff": 0.001
    },
    {
      "pbrMetallicRoughness": {
        "baseColorFactor": [
          0.015996293361446288,
          0.015996293361446288,
          0.015996293361446288,
          1
        ],
        "metallicFactor": 0.21,
        "roughnessFactor": 0.33
      },
      "alphaMode": "MASK",
      "alphaCutoff": 0.001
    },
    {
      "pbrMetallicRoughness": {
        "baseColorFactor": [
          0.015996293361446288,
          0.015996293361446288,
          0.015996293361446288,
          1
        ],
        "metallicFactor": 0.21,
        "roughnessFactor": 0.33
      },
      "alphaMode": "MASK",
      "alphaCutoff": 0.001
    }
  ],
  "meshes": [
    {
      "primitives": [
        {
          "mode": 4,
          "attributes": {
            "POSITION": 0,
            "NORMAL": 1,
            "TEXCOORD_0": 2
          },
          "material": 0
        }
      ]
    },
    {
      "primitives": [
        {
          "mode": 4,
          "attributes": {
            "POSITION": 3,
            "NORMAL": 4,
            "TEXCOORD_0": 5
          },
          "material": 1
        }
      ]
    },
    {
      "primitives": [
        {
          "mode": 4,
          "attributes": {
            "POSITION": 6,
            "NORMAL": 7,
            "TEXCOORD_0": 8
          },
          "material": 2
        }
      ]
    }
  ]
}