<?xml version="1.0" standalone="no"?>
<!DOCTYPE svg PUBLIC "-//W3C//DTD SVG 20010904//EN"
 "http://www.w3.org/TR/2001/REC-SVG-20010904/DTD/svg10.dtd">
<svg version="1.0" xmlns="http://www.w3.org/2000/svg"
 width="512.000000pt" height="512.000000pt" viewBox="0 0 512.000000 512.000000"
 preserveAspectRatio="xMidYMid meet">
<metadata>
Created by potrace 1.14, written by Peter Selinger 2001-2017
</metadata>
<g transform="translate(0.000000,512.000000) scale(0.100000,-0.100000)"
fill="#000000" stroke="none">
<path d="M770 5101 c-187 -40 -345 -125 -481 -261 -117 -117 -182 -217 -233
-358 -58 -163 -56 -94 -55 -1936 1 -1598 2 -1696 19 -1776 84 -389 368 -670
765 -754 61 -13 302 -15 1800 -13 l1730 2 93 28 c309 90 523 284 653 592 11
27 37 121 46 170 5 22 8 821 8 1775 0 1640 -1 1739 -18 1803 -47 177 -111 299
-227 433 -33 37 -155 144 -165 144 -5 0 -16 6 -24 14 -30 25 -126 73 -201 100
-165 58 -77 55 -1925 55 -1596 0 -1705 -2 -1785 -18z"/>
</g>
</svg>
