<svg width="64" height="64" viewBox="0 0 64 64" fill="none" xmlns="http://www.w3.org/2000/svg">
<path d="M49.2291 9.84591V14.769H44.306V9.84591L6.4 9.84592C2.86538 9.84592 0 12.7113 0 16.2459V47.7536C0 50.7795 2.09988 53.3149 4.92187 53.9821L4.92308 16.2459C4.92308 15.4302 5.58432 14.769 6.4 14.769H57.6C58.4157 14.769 59.0769 15.4302 59.0769 16.2459H64C64 12.7113 61.1346 9.84592 57.6 9.84592L49.2291 9.84591Z" fill="black"/>
<path d="M9.84495 49.2305V54.1536H57.6C61.1346 54.1536 64 51.2882 64 47.7536H59.0769C59.0769 48.5693 58.4157 49.2305 57.6 49.2305H9.84495Z" fill="black"/>
<path d="M9.847 6.4C9.847 2.86538 12.7124 0 16.247 0H47.7547C51.2893 0 54.1547 2.86538 54.1547 6.4V20.1704H49.2316V6.4C49.2316 5.58432 48.5704 4.92308 47.7547 4.92308H16.247C15.4313 4.92308 14.7701 5.58432 14.7701 6.4V27.9907C14.7701 28.8064 15.4313 29.4676 16.247 29.4676H47.7547C51.2893 29.4676 54.1547 32.333 54.1547 35.8676V57.6C54.1547 57.6442 54.1542 57.6884 54.1533 57.7324V54.1541H49.2316V35.8676C49.2316 35.0519 48.5704 34.3907 47.7547 34.3907H16.247C12.7124 34.3907 9.847 31.5253 9.847 27.9907V19.6922H14.7699V14.7691H9.847V6.4Z" fill="black"/>
<path d="M16.247 59.0769C15.4313 59.0769 14.7701 58.4157 14.7701 57.6V44.3962H9.847V57.6C9.847 61.1346 12.7124 64 16.247 64H47.7547C50.7809 64 53.3165 61.8996 53.9834 59.0772L16.247 59.0769Z" fill="black"/>
</svg>
